#!OML:ASF F:\VICON\USERDATA\INSTALL\rory3\rory3.ASF
:FULLY-SPECIFIED
:DEGREES
1876
root -2.19617 17.4892 -12.148 35.6562 23.3973 -1.11406
lowerback 36.3783 0.969176 -1.31634
upperback 11.0885 1.12811 1.16709
thorax -5.854 0.584843 1.50333
lowerneck -17.0904 1.25944 -8.31976
upperneck 23.1033 4.7692 -2.34755
head 10.1209 1.19754 1.20043
rclavicle 2.38542e-014 -3.54582e-014
rhumerus -18.9904 15.4021 -86.2089
rradius 78.6741
rwrist 36.3072
rhand -21.6106 -17.598
rfingers 7.12502
rthumb 4.78474 -47.5239
lclavicle 2.38542e-014 -3.54582e-014
lhumerus -16.1075 -25.8885 93.3513
lradius 75.1707
lwrist -29.6394
lhand -21.8478 37.2328
lfingers 7.12502
lthumb 4.55577 67.1638
rfemur -53.9567 0.170848 2.90848
rtibia 29.0504
rfoot -18.6998 -21.0195
rtoes 11.4017
lfemur -60.092 0.798241 -17.6935
ltibia 32.8408
lfoot -6.86096 -9.9384
ltoes -8.49374
1877
root -2.17662 17.481 -12.1452 35.5048 23.8843 -1.11986
lowerback 35.8825 0.935308 -1.23222
upperback 10.9387 1.10276 0.977524
thorax -5.83952 0.581534 1.27259
lowerneck -17.034 1.1779 -7.87899
upperneck 22.9994 4.52026 -2.33863
head 10.0852 1.12887 1.09746
rclavicle 1.45113e-014 -5.52621e-014
rhumerus -18.5572 15.7505 -86.3466
rradius 77.2243
rwrist 35.4507
rhand -21.8656 -17.4585
rfingers 7.12502
rthumb 4.53853 -47.3898
lclavicle 1.45113e-014 -5.52621e-014
lhumerus -16.0411 -26.3067 93.0717
lradius 74.6481
lwrist -29.1176
lhand -21.4659 37.3478
lfingers 7.12502
lthumb 4.92452 67.2706
rfemur -53.8457 0.439984 2.77158
rtibia 29.5281
rfoot -18.5184 -20.0799
rtoes 10.8304
lfemur -60.1376 0.790663 -17.8095
ltibia 33.104
lfoot -6.87065 -10.5146
ltoes -7.965
1878
root -2.14918 17.4786 -12.1335 35.113 24.3797 -1.22486
lowerback 35.4078 0.916029 -1.11975
upperback 10.9692 1.11501 0.880202
thorax -5.76761 0.593129 1.1091
lowerneck -16.8728 1.08543 -7.61067
upperneck 22.6861 4.28057 -2.33094
head 9.95128 1.05967 1.02009
rclavicle -2.37548e-014 -1.10077e-014
rhumerus -18.1331 15.9852 -86.4192
rradius 76.0139
rwrist 34.7844
rhand -22.4602 -17.3066
rfingers 7.12502
rthumb 3.96437 -47.2494
lclavicle -2.37548e-014 -1.10077e-014
lhumerus -15.8108 -26.5567 92.9284
lradius 73.9862
lwrist -28.7543
lhand -21.3114 37.046
lfingers 7.12502
lthumb 5.07366 66.9653
rfemur -53.5609 0.779059 2.76359
rtibia 30.163
rfoot -18.4851 -19.1143
rtoes 10.9083
lfemur -59.8936 0.682957 -17.7366
ltibia 33.3358
lfoot -6.95755 -10.906
ltoes -7.54304
1879
root -2.12061 17.4776 -12.1221 34.6141 24.8137 -1.27991
lowerback 35.1549 0.87732 -1.24287
upperback 10.8302 1.03574 0.920991
thorax -5.83068 0.555457 1.24621
lowerneck -16.686 1.10385 -8.03372
upperneck 22.7163 4.31009 -1.95519
head 9.9071 1.08232 1.22217
rclavicle -3.12092e-014 -7.54761e-014
rhumerus -18.0696 16.4701 -86.4235
rradius 75.2676
rwrist 34.3793
rhand -23.1852 -17.3807
rfingers 7.12502
rthumb 3.26429 -47.3355
lclavicle -3.12092e-014 -7.54761e-014
lhumerus -15.7605 -26.2583 93.1077
lradius 73.2141
lwrist -28.7119
lhand -20.9109 37.0291
lfingers 7.12502
lthumb 5.46037 66.9388
rfemur -53.1668 0.941577 2.88378
rtibia 30.8225
rfoot -18.2565 -18.1549
rtoes 10.0084
lfemur -59.5086 0.518045 -17.6989
ltibia 33.6318
lfoot -7.19626 -11.1784
ltoes -7.19161
1880
root -2.0925 17.4741 -12.11 34.1021 25.1669 -1.27427
lowerback 34.8976 0.947132 -1.42175
upperback 10.8252 1.07114 0.934896
thorax -5.74853 0.571221 1.34537
lowerneck -17.0952 1.02485 -8.27429
upperneck 23.0809 4.2618 -1.65807
head 10.1039 1.05344 1.36896
rclavicle -1.10822e-014 2.44257e-014
rhumerus -17.7213 16.7562 -86.3231
rradius 74.4933
rwrist 33.8699
rhand -22.9069 -17.383
rfingers 7.12502
rthumb 3.53305 -47.3335
lclavicle -1.10822e-014 2.44257e-014
lhumerus -15.3979 -26.3148 93.191
lradius 72.4384
lwrist -28.5987
lhand -20.6113 37.1226
lfingers 7.12502
lthumb 5.74964 67.0246
rfemur -52.7636 1.06427 2.99929
rtibia 31.4893
rfoot -17.9597 -17.3244
rtoes 8.37219
lfemur -59.0793 0.331192 -17.7172
ltibia 33.9716
lfoot -7.45794 -11.3922
ltoes -6.90645
1881
root -2.06423 17.4698 -12.093 33.5855 25.5149 -1.25351
lowerback 34.5661 1.10074 -1.60933
upperback 10.8295 1.20828 0.958693
thorax -5.63315 0.634088 1.42541
lowerneck -17.0842 0.885588 -8.02026
upperneck 23.0569 4.04654 -1.8352
head 10.1102 0.959069 1.23695
rclavicle -1.39149e-015 -4.19684e-014
rhumerus -17.4074 16.7676 -86.2612
rradius 73.6772
rwrist 33.427
rhand -22.1585 -17.4228
rfingers 7.12502
rthumb 4.25569 -47.36
lclavicle -1.39149e-015 -4.19684e-014
lhumerus -15.263 -26.5697 93.3863
lradius 71.9595
lwrist -28.4724
lhand -20.21 37.2364
lfingers 7.12502
lthumb 6.1371 67.1275
rfemur -52.3756 1.1154 3.21119
rtibia 32.2234
rfoot -17.6109 -16.5411
rtoes 7.21029
lfemur -58.6369 0.188589 -17.7822
ltibia 34.3515
lfoot -7.71086 -11.6609
ltoes -6.34504
1882
root -2.0382 17.4629 -12.0766 33.0568 25.8915 -1.28229
lowerback 34.2373 1.23211 -1.85385
upperback 10.832 1.31031 1.0755
thorax -5.52269 0.677158 1.64601
lowerneck -16.9778 0.75634 -7.93836
upperneck 22.8442 3.8902 -2.08743
head 10.0284 0.877233 1.1114
rclavicle 1.07344e-014 -7.16619e-014
rhumerus -17.0322 16.9082 -86.2621
rradius 72.7472
rwrist 33.1112
rhand -21.3828 -17.5494
rfingers 7.12502
rthumb 5.00473 -47.4703
lclavicle 1.07344e-014 -7.16619e-014
lhumerus -15.1194 -26.5654 93.6474
lradius 71.532
lwrist -28.3538
lhand -19.5393 37.5387
lfingers 7.12502
lthumb 6.78458 67.41
rfemur -52.0325 1.06094 3.58409
rtibia 33.0229
rfoot -17.4079 -15.7557
rtoes 6.65195
lfemur -58.244 0.0676935 -17.7913
ltibia 34.7854
lfoot -8.01265 -11.9255
ltoes -6.06937
1883
root -2.00958 17.4509 -12.061 32.6354 26.1443 -1.31467
lowerback 33.7775 1.35144 -2.19636
upperback 10.7876 1.36701 1.17984
thorax -5.41454 0.697031 1.92335
lowerneck -16.8819 0.686447 -8.18233
upperneck 22.7051 3.83705 -2.0554
head 9.95887 0.844025 1.15329
rclavicle 1.14301e-014 -5.82688e-014
rhumerus -16.7353 17.132 -86.4585
rradius 71.7272
rwrist 33.0212
rhand -20.4085 -17.5215
rfingers 7.12502
rthumb 5.94541 -47.4181
lclavicle 1.14301e-014 -5.82688e-014
lhumerus -14.9993 -26.4161 93.8661
lradius 71.028
lwrist -28.1796
lhand -18.8373 37.5395
lfingers 7.12502
lthumb 7.46224 67.3879
rfemur -51.8646 0.870589 4.01987
rtibia 33.8886
rfoot -17.3846 -14.88
rtoes 6.36037
lfemur -57.9683 0.00379189 -17.8393
ltibia 35.2576
lfoot -8.42302 -12.1085
ltoes -6.2093
1884
root -1.97844 17.439 -12.044 32.2558 26.2077 -1.46788
lowerback 33.2663 1.53516 -2.53899
upperback 10.6285 1.49553 1.23558
thorax -5.41219 0.751831 2.12632
lowerneck -16.6824 0.643342 -8.43117
upperneck 22.6919 3.79362 -1.92608
head 9.91159 0.822225 1.23147
rclavicle 8.24956e-015 -2.2239e-014
rhumerus -16.655 17.4356 -86.6022
rradius 70.7777
rwrist 33.0124
rhand -19.3668 -17.3806
rfingers 7.12502
rthumb 6.9511 -47.2465
lclavicle 8.24956e-015 -2.2239e-014
lhumerus -15.1222 -26.263 94.1595
lradius 70.5099
lwrist -28.1196
lhand -18.5312 37.1514
lfingers 7.12502
lthumb 7.75766 66.9891
rfemur -51.8884 0.756721 4.55217
rtibia 34.8337
rfoot -17.3827 -14.0874
rtoes 6.28979
lfemur -57.7819 0.0398595 -17.802
ltibia 35.7634
lfoot -8.82569 -12.1055
ltoes -6.31105
1885
root -1.94996 17.4301 -12.0266 31.7616 26.4035 -1.67298
lowerback 32.5364 1.68343 -2.76564
upperback 10.8839 1.64579 1.25169
thorax -5.44437 0.82612 2.40812
lowerneck -16.5659 0.576695 -8.60339
upperneck 22.67 3.74611 -1.95565
head 9.88349 0.786312 1.24189
rclavicle -1.20265e-014 9.06955e-015
rhumerus -16.4723 17.6658 -86.5743
rradius 69.8936
rwrist 33.3479
rhand -17.8926 -17.2633
rfingers 7.12502
rthumb 8.37394 -47.0773
lclavicle -1.20265e-014 9.06955e-015
lhumerus -15.0856 -26.2988 94.4175
lradius 69.7248
lwrist -27.4052
lhand -19.1578 36.105
lfingers 7.12502
lthumb 7.15284 65.9642
rfemur -51.8122 0.636474 5.24183
rtibia 35.8528
rfoot -17.4307 -13.6548
rtoes 5.29246
lfemur -57.5145 0.0429856 -17.6583
ltibia 36.2901
lfoot -9.19453 -12.1689
ltoes -5.82505
1886
root -1.92393 17.4202 -12.0083 31.2385 26.7808 -1.81405
lowerback 32.1434 1.58006 -2.49211
upperback 10.8946 1.59325 1.04502
thorax -5.24484 0.808056 2.04083
lowerneck -16.7281 0.519336 -8.59589
upperneck 22.6858 3.6541 -1.82991
head 9.91877 0.756679 1.27465
rclavicle 3.62782e-015 -9.15776e-014
rhumerus -15.9601 17.6202 -86.8323
rradius 69.0592
rwrist 34.0665
rhand -17.0909 -17.2811
rfingers 7.12502
rthumb 9.14762 -47.0627
lclavicle 3.62782e-015 -9.15776e-014
lhumerus -14.7308 -26.6906 94.125
lradius 68.5427
lwrist -25.5567
lhand -21.6956 33.7872
lfingers 7.12502
lthumb 4.70272 63.715
rfemur -51.6517 0.318575 6.0233
rtibia 36.943
rfoot -17.5529 -13.3477
rtoes 3.46256
lfemur -57.2124 -0.0571927 -17.5337
ltibia 36.8202
lfoot -9.5786 -12.3833
ltoes -5.44936
1887
root -1.89952 17.4078 -11.9891 30.6852 27.1417 -1.99827
lowerback 31.5396 1.82234 -2.91412
upperback 10.999 1.82654 1.46501
thorax -4.88962 0.900659 2.68187
lowerneck -16.6637 0.347229 -9.07347
upperneck 22.5165 3.57996 -2.00327
head 9.85232 0.673139 1.28016
rclavicle 4.69132e-014 -2.78795e-014
rhumerus -15.4142 17.9871 -86.1048
rradius 68.28
rwrist 34.3759
rhand -19.3273 -17.1965
rfingers 7.12502
rthumb 6.9892 -47.0612
lclavicle 4.69132e-014 -2.78795e-014
lhumerus -14.3105 -26.3998 94.6569
lradius 68.3425
lwrist -27.6441
lhand -18.4867 35.8254
lfingers 7.12502
lthumb 7.80057 65.6615
rfemur -51.5113 0.0475361 6.8088
rtibia 38.0768
rfoot -17.7984 -12.9807
rtoes 3.29382
lfemur -56.9083 -0.136334 -17.3713
ltibia 37.3528
lfoot -9.95059 -12.5864
ltoes -5.30802
1888
root -1.87515 17.3923 -11.9734 30.2183 27.4321 -2.08911
lowerback 31.3453 1.60778 -2.48677
upperback 10.8488 1.64762 1.0084
thorax -4.9423 0.833991 1.98705
lowerneck -16.6798 0.354266 -8.89886
upperneck 22.4983 3.47995 -1.75773
head 9.84492 0.670091 1.32467
rclavicle -1.27222e-014 3.00165e-014
rhumerus -15.2051 17.9846 -86.8362
rradius 67.3829
rwrist 34.5507
rhand -19.2812 -17.2503
rfingers 7.12502
rthumb 7.03373 -47.1135
lclavicle -1.27222e-014 3.00165e-014
lhumerus -14.2575 -26.5692 94.0633
lradius 68.0415
lwrist -28.1868
lhand -17.537 36.211
lfingers 7.12502
lthumb 8.71717 66.011
rfemur -51.4942 -0.340276 7.53786
rtibia 39.2321
rfoot -17.9011 -12.6862
rtoes 3.49358
lfemur -56.667 -0.20542 -17.3391
ltibia 37.8729
lfoot -10.2833 -12.7851
ltoes -5.46422
1889
root -1.8489 17.3757 -11.9569 29.7917 27.7753 -2.17009
lowerback 30.8835 1.63522 -2.60021
upperback 10.8243 1.67079 1.10839
thorax -4.76813 0.840732 2.16171
lowerneck -16.9238 0.266771 -9.09525
upperneck 22.6991 3.49507 -1.89493
head 9.96662 0.633958 1.31499
rclavicle -6.92765e-014 -1.45237e-014
rhumerus -14.7932 18.2592 -86.6257
rradius 66.5403
rwrist 34.6015
rhand -19.7956 -17.3668
rfingers 7.12502
rthumb 6.53714 -47.246
lclavicle -6.92765e-014 -1.45237e-014
lhumerus -13.9099 -26.4099 94.291
lradius 67.3849
lwrist -28.4465
lhand -16.6206 36.5836
lfingers 7.12502
lthumb 9.6014 66.3448
rfemur -51.5083 -0.790108 8.2896
rtibia 40.3789
rfoot -18.0367 -12.5774
rtoes 3.36661
lfemur -56.4679 -0.28121 -17.3238
ltibia 38.368
lfoot -10.583 -13.0537
ltoes -5.53123
1890
root -1.81903 17.3657 -11.9349 29.3198 27.9915 -2.19558
lowerback 30.5539 1.53482 -2.3881
upperback 10.7003 1.58328 0.765295
thorax -4.74211 0.810342 1.69016
lowerneck -16.9081 0.242827 -8.82717
upperneck 22.8831 3.38387 -1.83238
head 10.0336 0.605604 1.28064
rclavicle 1.50082e-014 -1.13059e-015
rhumerus -14.5319 18.1213 -87.0851
rradius 65.6007
rwrist 34.7498
rhand -20.3097 -17.3554
rfingers 7.12502
rthumb 6.04082 -47.2493
lclavicle 1.50082e-014 -1.13059e-015
lhumerus -13.854 -26.5196 93.988
lradius 66.8623
lwrist -28.6452
lhand -15.4732 36.8207
lfingers 7.12502
lthumb 10.7083 66.5278
rfemur -51.4426 -1.18124 8.96724
rtibia 41.5142
rfoot -18.1257 -12.6291
rtoes 2.72798
lfemur -56.0998 -0.324698 -17.4101
ltibia 38.8189
lfoot -10.9626 -13.1869
ltoes -5.84018
